<?xml version="1.0" encoding="UTF-8" standalone="no"?>
<!-- Created with Inkscape (http://www.inkscape.org/) -->

<svg
   xmlns:dc="http://purl.org/dc/elements/1.1/"
   xmlns:cc="http://creativecommons.org/ns#"
   xmlns:rdf="http://www.w3.org/1999/02/22-rdf-syntax-ns#"
   xmlns:svg="http://www.w3.org/2000/svg"
   xmlns="http://www.w3.org/2000/svg"
   xmlns:sodipodi="http://sodipodi.sourceforge.net/DTD/sodipodi-0.dtd"
   xmlns:inkscape="http://www.inkscape.org/namespaces/inkscape"
   width="40.908352mm"
   height="20.584583mm"
   viewBox="0 0 40.908352 20.584583"
   version="1.1"
   id="svg8"
   inkscape:version="0.92.0 r15299"
   sodipodi:docname="s7s_display_hole.svg">
  <defs
     id="defs2">
    <marker
       style="overflow:visible"
       refY="0"
       refX="0"
       orient="auto"
       id="DistanceX">
      <path
         id="path12"
         style="stroke:#000000;stroke-width:0.5"
         d="M 3,-3 -3,3 M 0,-5 V 5"
         inkscape:connector-curvature="0" />
    </marker>
    <pattern
       y="0"
       x="0"
       width="8"
       patternUnits="userSpaceOnUse"
       id="Hatch"
       height="8">
      <path
         id="path15"
         stroke-width="0.25"
         stroke="#000000"
         linecap="square"
         d="M8 4 l-4,4" />
      <path
         id="path17"
         stroke-width="0.25"
         stroke="#000000"
         linecap="square"
         d="M6 2 l-4,4" />
      <path
         id="path19"
         stroke-width="0.25"
         stroke="#000000"
         linecap="square"
         d="M4 0 l-4,4" />
    </pattern>
    <symbol
       id="*Model_Space" />
    <symbol
       id="*Paper_Space" />
  </defs>
  <sodipodi:namedview
     id="base"
     pagecolor="#ffffff"
     bordercolor="#666666"
     borderopacity="1.0"
     inkscape:pageopacity="0.0"
     inkscape:pageshadow="2"
     inkscape:zoom="3.959798"
     inkscape:cx="114.18818"
     inkscape:cy="1.6438069"
     inkscape:document-units="mm"
     inkscape:current-layer="layer1"
     showgrid="false"
     fit-margin-top="0"
     fit-margin-left="0"
     fit-margin-right="0"
     fit-margin-bottom="0"
     inkscape:window-width="1920"
     inkscape:window-height="1001"
     inkscape:window-x="-9"
     inkscape:window-y="-9"
     inkscape:window-maximized="1" />
  <metadata
     id="metadata5">
    <rdf:RDF>
      <cc:Work
         rdf:about="">
        <dc:format>image/svg+xml</dc:format>
        <dc:type
           rdf:resource="http://purl.org/dc/dcmitype/StillImage" />
        <dc:title></dc:title>
      </cc:Work>
    </rdf:RDF>
  </metadata>
  <g
     inkscape:label="Layer 1"
     inkscape:groupmode="layer"
     id="layer1"
     transform="translate(185.71746,144.25521)">
    <g
       inkscape:label="DEFAULT_1"
       id="g42"
       transform="matrix(0.26458333,0,0,0.26458333,-205.31666,-27.516667)" />
    <g
       inkscape:label="DEFAULT_2"
       id="g44"
       transform="matrix(0.26458333,0,0,0.26458333,-205.31666,-27.516667)" />
    <g
       inkscape:label="DEFAULT_3"
       id="g46"
       transform="matrix(0.26458333,0,0,0.26458333,-205.31666,-27.516667)" />
    <g
       inkscape:label="01___PRT_ALL_DTM_PLN"
       id="g48"
       transform="matrix(0.26458333,0,0,0.26458333,-205.31666,-27.516667)" />
    <g
       inkscape:label="01___PRT_DEF_DTM_PLN"
       id="g50"
       transform="matrix(0.26458333,0,0,0.26458333,-205.31666,-27.516667)" />
    <g
       id="g866"
       transform="translate(-30.238095,-85.800595)">
      <path
         inkscape:connector-curvature="0"
         d="m -155.34519,-54.766326 v 13.208"
         style="fill:none;stroke:#000000;stroke-width:0.26458332;stroke-linecap:round"
         id="path54" />
      <path
         inkscape:connector-curvature="0"
         d="m -114.70519,-41.558326 v -13.208"
         style="fill:none;stroke:#000000;stroke-width:0.26458332;stroke-linecap:round"
         id="path60" />
      <path
         inkscape:connector-curvature="0"
         d="m -155.34519,-41.558326 h 40.64"
         style="fill:none;stroke:#000000;stroke-width:0.26458332;stroke-linecap:round"
         id="path64" />
      <path
         inkscape:connector-curvature="0"
         d="m -114.70519,-54.766326 h -40.64"
         style="fill:none;stroke:#000000;stroke-width:0.26458332;stroke-linecap:round"
         id="path70" />
      <path
         inkscape:connector-curvature="0"
         d="m -148.36019,-39.272326 a 1.27,1.27 0 1 0 -2.54,0 1.27,1.27 0 1 0 2.54,0 z"
         style="fill:none;stroke:#000000;stroke-width:0.26458332;stroke-linecap:round"
         id="path100" />
      <path
         inkscape:connector-curvature="0"
         d="m -119.15019,-39.272326 a 1.27,1.27 0 1 0 -2.54,0 1.27,1.27 0 1 0 2.54,0 z"
         style="fill:none;stroke:#000000;stroke-width:0.26458332;stroke-linecap:round"
         id="path102" />
      <path
         inkscape:connector-curvature="0"
         d="m -148.36019,-57.052326 a 1.27,1.27 0 1 0 -2.54,0 1.27,1.27 0 1 0 2.54,0 z"
         style="fill:none;stroke:#000000;stroke-width:0.26458332;stroke-linecap:round"
         id="path114" />
      <path
         inkscape:connector-curvature="0"
         d="m -119.15019,-57.052326 a 1.27,1.27 0 1 0 -2.54,0 1.27,1.27 0 1 0 2.54,0 z"
         style="fill:none;stroke:#000000;stroke-width:0.26458332;stroke-linecap:round"
         id="path116" />
    </g>
    <g
       inkscape:label="03___PRT_ALL_CURVES"
       id="g176"
       transform="matrix(0.26458333,0,0,0.26458333,-205.31666,-27.516667)" />
    <g
       inkscape:label="04___PRT_ALL_DTM_PNT"
       id="g178"
       transform="matrix(0.26458333,0,0,0.26458333,-205.31666,-27.516667)" />
    <g
       inkscape:label="05___PRT_ALL_DTM_CSYS"
       id="g180"
       transform="matrix(0.26458333,0,0,0.26458333,-205.31666,-27.516667)" />
    <g
       inkscape:label="05___PRT_DEF_DTM_CSYS"
       id="g182"
       transform="matrix(0.26458333,0,0,0.26458333,-205.31666,-27.516667)" />
    <g
       inkscape:label="06___PRT_ALL_SURFS"
       id="g184"
       transform="matrix(0.26458333,0,0,0.26458333,-205.31666,-27.516667)" />
  </g>
</svg>
